Coordinates
version=1
nRows=35
nColumns=34
inDegrees=no

Units are S.I. units (second, meters, Newtons, ...)
If the header above contains a line with 'inDegrees', this indicates whether rotational values are in degrees (yes) or radians (no).

endheader
time	pelvis_tilt	pelvis_list	pelvis_rotation	pelvis_tx	pelvis_ty	pelvis_tz	hip_flexion_r	hip_adduction_r	hip_rotation_r	knee_angle_r	ankle_angle_r	subtalar_angle_r	mtp_angle_r	hip_flexion_l	hip_adduction_l	hip_rotation_l	knee_angle_l	ankle_angle_l	subtalar_angle_l	mtp_angle_l	lumbar_extension	lumbar_bending	lumbar_rotation	arm_flex_r	arm_add_r	arm_rot_r	elbow_flex_r	pro_sup_r	arm_flex_l	arm_add_l	arm_rot_l	elbow_flex_l	pro_sup_l
6.6	-0.571869	-0.0354766	-0.00782351	-0.34709	0.608034	-0.533261	1.72953	-0.0184256	-0.0758506	1.64923	0.609355	-0.146923	-0.0215936	1.77256	-0.295339	0.158036	1.61752	0.536774	0.045499	-0.0215937	-0.559671	0.0801881	0.0725537	2.03096	-0.265519	0.40637	1.37608	1.90682	1.93558	-0.196157	0.424221	1.34814	1.66431
6.61	-0.572262	-0.0338023	-0.0070938	-0.347153	0.605242	-0.533219	1.73656	-0.0210436	-0.0755881	1.65887	0.612817	-0.144299	-0.0215936	1.77952	-0.299203	0.155267	1.62613	0.539637	0.0529674	-0.0215937	-0.564859	0.0774311	0.0723391	2.03859	-0.265415	0.404614	1.3789	1.90406	1.94425	-0.194584	0.425004	1.34794	1.6629
6.62	-0.572441	-0.0321704	-0.00648575	-0.347159	0.602609	-0.533182	1.74294	-0.0239745	-0.0756901	1.66804	0.616476	-0.140956	-0.0215936	1.78596	-0.303435	0.152268	1.63442	0.542455	0.060636	-0.0215937	-0.569803	0.0748339	0.0722263	2.04553	-0.265203	0.403064	1.38161	1.90132	1.9519	-0.193093	0.425455	1.34786	1.66157
6.63	-0.572463	-0.0306658	-0.00605511	-0.34711	0.60013	-0.53315	1.74873	-0.0271087	-0.076182	1.67673	0.62025	-0.136997	-0.0215936	1.79197	-0.30797	0.149227	1.64239	0.545239	0.068391	-0.0215937	-0.574412	0.0724765	0.0722627	2.05176	-0.264842	0.401749	1.38411	1.89882	1.9585	-0.191732	0.425576	1.34783	1.66045
6.64	-0.572365	-0.0293719	-0.00583198	-0.34701	0.597805	-0.533121	1.75395	-0.0303473	-0.0770787	1.68489	0.62405	-0.132549	-0.0215936	1.7976	-0.312703	0.146337	1.65002	0.547974	0.0760765	-0.0215937	-0.57862	0.0704341	0.072463	2.05725	-0.264278	0.400679	1.38632	1.89667	1.96405	-0.190541	0.425394	1.34779	1.65969
6.65	-0.572166	-0.0283553	-0.00581266	-0.346863	0.595634	-0.533097	1.7586	-0.0336151	-0.0783716	1.69251	0.627803	-0.127748	-0.0215936	1.80288	-0.317499	0.143755	1.6573	0.550631	0.0835203	-0.0215937	-0.582393	0.0687648	0.0727973	2.06197	-0.263459	0.399833	1.38814	1.89488	1.96859	-0.189548	0.424954	1.34764	1.65937
6.66	-0.571867	-0.0276559	-0.00596107	-0.346673	0.59362	-0.533076	1.76269	-0.0368606	-0.0800212	1.69958	0.631448	-0.122737	-0.0215936	1.8078	-0.322208	0.141591	1.66419	0.55316	0.0905569	-0.0215937	-0.58572	0.0675008	0.0731972	2.06589	-0.262335	0.399154	1.38952	1.89332	1.97219	-0.188766	0.424321	1.34735	1.6595
6.67	-0.571464	-0.0272854	-0.00622458	-0.346444	0.591767	-0.533059	1.76621	-0.0400388	-0.0819593	1.70609	0.634937	-0.11766	-0.0215936	1.81234	-0.326696	0.139898	1.67066	0.555512	0.0970499	-0.0215937	-0.588609	0.0666435	0.0735837	2.069	-0.260886	0.398563	1.39046	1.89179	1.97492	-0.188186	0.423567	1.34686	1.66003
6.68	-0.570954	-0.0272329	-0.0065567	-0.34618	0.590076	-0.533042	1.76917	-0.0430858	-0.0841015	1.71206	0.638232	-0.11267	-0.0215936	1.81647	-0.330864	0.138696	1.67668	0.557648	0.102912	-0.0215937	-0.59108	0.0661612	0.0739035	2.07129	-0.259141	0.39797	1.39102	1.89015	1.97689	-0.187779	0.422755	1.34618	1.66085
6.69	-0.570343	-0.0274694	-0.00693249	-0.345888	0.588551	-0.53302	1.77158	-0.0459062	-0.0863571	1.71747	0.641292	-0.107934	-0.0215936	1.8202	-0.334672	0.13798	1.68223	0.559545	0.108111	-0.0215937	-0.593159	0.0659917	0.074145	2.07281	-0.257173	0.397295	1.39132	1.88842	1.97818	-0.187504	0.421941	1.34534	1.66186
6.7	-0.569642	-0.0279499	-0.00735023	-0.345572	0.587193	-0.532985	1.77348	-0.0483817	-0.0886345	1.72234	0.644076	-0.10362	-0.0215936	1.82351	-0.338133	0.137715	1.68729	0.561202	0.112659	-0.0215937	-0.594866	0.0660498	0.0743255	2.07359	-0.255079	0.396479	1.39148	1.88669	1.97889	-0.187321	0.421167	1.34437	1.66295
6.71	-0.568869	-0.0286133	-0.00782062	-0.345237	0.586006	-0.532929	1.77489	-0.050395	-0.0908407	1.72666	0.646554	-0.0998807	-0.0215936	1.82638	-0.341293	0.13784	1.69185	0.562635	0.116605	-0.0215937	-0.596222	0.066239	0.0744671	2.07371	-0.252951	0.395509	1.39162	1.88508	1.9791	-0.187204	0.420467	1.34335	1.664
6.72	-0.568044	-0.0293876	-0.00835264	-0.344889	0.584988	-0.532848	1.77586	-0.0518548	-0.0928832	1.73044	0.648708	-0.0968393	-0.0215936	1.82883	-0.344201	0.138264	1.6959	0.563868	0.120004	-0.0215937	-0.597237	0.0664669	0.0745806	2.07322	-0.250874	0.394417	1.39182	1.88362	1.97885	-0.187135	0.419854	1.34234	1.66495
6.73	-0.567189	-0.030198	-0.00894449	-0.344532	0.584142	-0.53274	1.77642	-0.0527117	-0.0946764	1.73366	0.650527	-0.0945832	-0.0215936	1.83082	-0.346888	0.138887	1.69943	0.564919	0.122901	-0.0215937	-0.597918	0.0666576	0.0746637	2.0722	-0.248923	0.393277	1.39214	1.88229	1.9782	-0.1871	0.41932	1.3414	1.6657
6.74	-0.566326	-0.0309801	-0.00958081	-0.34417	0.583468	-0.532609	1.77662	-0.0529678	-0.0961562	1.73632	0.652013	-0.0931473	-0.0215936	1.83235	-0.349356	0.139611	1.70243	0.565804	0.125325	-0.0215937	-0.598267	0.0667634	0.0747071	2.07073	-0.247167	0.392185	1.39259	1.88102	1.97716	-0.187081	0.418835	1.34058	1.66621
6.75	-0.565476	-0.0316871	-0.0102321	-0.343809	0.582966	-0.532462	1.77648	-0.0526808	-0.0972886	1.73843	0.65318	-0.0925017	-0.0215936	1.8334	-0.351577	0.140357	1.70488	0.566528	0.12729	-0.0215937	-0.598287	0.066769	0.0746987	2.06889	-0.245654	0.391235	1.39316	1.87967	1.97574	-0.187051	0.418352	1.33992	1.66646
6.76	-0.564655	-0.0322918	-0.0108528	-0.34345	0.582636	-0.532308	1.77603	-0.0519658	-0.098071	1.73997	0.65405	-0.0925483	-0.0215936	1.83396	-0.353496	0.141057	1.70677	0.567095	0.128799	-0.0215937	-0.597977	0.0666891	0.0746193	2.06676	-0.244415	0.390494	1.39384	1.8781	1.97394	-0.186985	0.417823	1.33942	1.66644
6.77	-0.563874	-0.0327824	-0.0113781	-0.343098	0.582479	-0.532162	1.77527	-0.0509912	-0.0985243	1.74097	0.65466	-0.093129	-0.0215936	1.83402	-0.355031	0.141656	1.70808	0.567497	0.129839	-0.0215937	-0.597341	0.0665638	0.0744337	2.06437	-0.243452	0.389983	1.39458	1.87625	1.97178	-0.186859	0.417213	1.3391	1.66619
6.78	-0.563137	-0.0331592	-0.0117243	-0.342752	0.582493	-0.532037	1.77421	-0.0499677	-0.098684	1.74143	0.65506	-0.094041	-0.0215936	1.83356	-0.356074	0.142099	1.7088	0.567724	0.130386	-0.0215937	-0.596385	0.0664526	0.074085	2.06177	-0.242747	0.389673	1.39535	1.87416	1.96928	-0.186657	0.416503	1.33893	1.66574
6.79	-0.562442	-0.0334337	-0.0118043	-0.342416	0.582679	-0.531948	1.77285	-0.0491162	-0.0985969	1.74139	0.655311	-0.0950624	-0.0215936	1.83257	-0.356514	0.142345	1.70891	0.567763	0.130412	-0.0215937	-0.595117	0.0664251	0.07351	2.05898	-0.242272	0.389505	1.3961	1.872	1.96645	-0.186369	0.415679	1.33891	1.66515
6.8	-0.561788	-0.0336349	-0.0115653	-0.342088	0.583036	-0.531906	1.77118	-0.04861	-0.0983326	1.74086	0.655469	-0.0959917	-0.0215936	1.83106	-0.356289	0.142384	1.70843	0.567608	0.129914	-0.0215937	-0.593539	0.0665453	0.0726787	2.05599	-0.241995	0.3894	1.39681	1.86998	1.96331	-0.185983	0.414735	1.339	1.66455
6.81	-0.561179	-0.0338177	-0.0110363	-0.341767	0.583562	-0.531912	1.7692	-0.0485059	-0.0979989	1.73985	0.655572	-0.0966919	-0.0215936	1.82906	-0.355443	0.142266	1.70735	0.567276	0.128945	-0.0215937	-0.591634	0.0668529	0.0716405	2.05278	-0.241893	0.389285	1.39748	1.86835	1.95986	-0.185487	0.413671	1.33915	1.66405
6.82	-0.560622	-0.0340601	-0.010345	-0.341451	0.584251	-0.531955	1.76689	-0.0487153	-0.0977395	1.73835	0.655626	-0.0971131	-0.0215936	1.82667	-0.35416	0.1421	1.70575	0.566806	0.127627	-0.0215937	-0.589369	0.0673516	0.0705361	2.04929	-0.241948	0.389094	1.3981	1.86728	1.95609	-0.184879	0.412506	1.33932	1.66378
6.83	-0.560124	-0.0344453	-0.00968313	-0.341135	0.585097	-0.532017	1.76424	-0.0490439	-0.0977044	1.73633	0.655614	-0.0972795	-0.0215936	1.824	-0.352718	0.142019	1.70368	0.566256	0.126129	-0.0215937	-0.586705	0.068014	0.0695552	2.04544	-0.242131	0.388773	1.39868	1.86691	1.95198	-0.184175	0.411279	1.33945	1.66388
6.84	-0.559684	-0.0350334	-0.00923205	-0.340815	0.586097	-0.532078	1.76125	-0.0492844	-0.0980027	1.73378	0.655509	-0.0972504	-0.0215936	1.82112	-0.351388	0.142125	1.70121	0.565678	0.124612	-0.0215937	-0.583612	0.0687998	0.0688601	2.04119	-0.242408	0.388291	1.39923	1.86728	1.94754	-0.183417	0.41005	1.33951	1.66441
6.85	-0.559286	-0.0358437	-0.00910062	-0.340486	0.587249	-0.532128	1.7579	-0.0492978	-0.0986717	1.73068	0.655287	-0.0970847	-0.0215936	1.81807	-0.350347	0.142451	1.69836	0.565103	0.123165	-0.0215937	-0.580081	0.0696767	0.0685279	2.03648	-0.242735	0.387646	1.39972	1.86832	1.94276	-0.18267	0.408885	1.33946	1.66539
6.86	-0.558912	-0.0368526	-0.00930569	-0.340145	0.588556	-0.532166	1.75416	-0.0490435	-0.0996746	1.72702	0.654936	-0.0968234	-0.0215936	1.81481	-0.349642	0.142954	1.69514	0.56454	0.121794	-0.0215937	-0.576117	0.070628	0.0685353	2.03129	-0.243073	0.386872	1.40016	1.86986	1.93767	-0.182012	0.407845	1.33931	1.66677
6.87	-0.558538	-0.0380035	-0.0097915	-0.339789	0.590022	-0.532197	1.75002	-0.0485604	-0.100921	1.72281	0.654453	-0.0964892	-0.0215936	1.81127	-0.349215	0.143537	1.69151	0.563973	0.120436	-0.0215937	-0.571743	0.0716492	0.0687812	2.02564	-0.243383	0.386032	1.40054	1.87167	1.93229	-0.181529	0.406973	1.33909	1.66845
6.88	-0.558135	-0.039222	-0.0104653	-0.339414	0.591654	-0.532232	1.74546	-0.0479283	-0.102293	1.71805	0.653839	-0.0960952	-0.0215936	1.80733	-0.348954	0.144079	1.68743	0.563373	0.119	-0.0215937	-0.566985	0.0727381	0.0691254	2.01952	-0.243626	0.38519	1.40089	1.87345	1.92664	-0.181305	0.406287	1.33885	1.67018
6.89	-0.557673	-0.0404323	-0.011233	-0.339019	0.593461	-0.53228	1.74046	-0.0472279	-0.103675	1.71274	0.653092	-0.0956535	-0.0215936	1.80288	-0.348746	0.144459	1.68285	0.562712	0.117401	-0.0215937	-0.561878	0.0738828	0.0694296	2.01294	-0.243767	0.384382	1.40124	1.87499	1.92071	-0.181395	0.405776	1.33866	1.67173
6.9	-0.557121	-0.0415677	-0.0120284	-0.338599	0.595451	-0.532345	1.73498	-0.0465063	-0.104969	1.70687	0.652201	-0.0951844	-0.0215936	1.79783	-0.348518	0.144573	1.67773	0.561967	0.115594	-0.0215937	-0.55646	0.0750506	0.069592	2.0059	-0.243785	0.383606	1.40162	1.87616	1.91452	-0.181814	0.40539	1.33858	1.67299
6.91	-0.556448	-0.042577	-0.0128298	-0.33815	0.597631	-0.532427	1.72899	-0.0457566	-0.106103	1.70045	0.651143	-0.0947216	-0.0215936	1.7921	-0.348264	0.144346	1.67205	0.561125	0.113582	-0.0215937	-0.550759	0.0761828	0.0695654	1.99835	-0.243683	0.382815	1.40212	1.87693	1.90803	-0.182535	0.405057	1.33864	1.67394
6.92	-0.55563	-0.0434274	-0.0136562	-0.337668	0.600009	-0.532517	1.72246	-0.0449205	-0.107033	1.69345	0.649888	-0.0943139	-0.0215936	1.78562	-0.348038	0.143736	1.6658	0.560183	0.11141	-0.0215937	-0.544797	0.0772048	0.0693539	1.99025	-0.243483	0.381939	1.4028	1.87738	1.90122	-0.183501	0.404694	1.33885	1.67469
6.93	-0.554651	-0.0441062	-0.014545	-0.337148	0.602589	-0.532605	1.71536	-0.0439165	-0.107744	1.68586	0.648403	-0.0940193	-0.0215936	1.77839	-0.34792	0.142727	1.65898	0.559141	0.109148	-0.0215937	-0.538581	0.0780494	0.0689923	1.98153	-0.243203	0.380896	1.40373	1.87758	1.89403	-0.184649	0.404217	1.3392	1.67538
6.94	-0.553507	-0.0446199	-0.0155242	-0.336586	0.605377	-0.532681	1.70766	-0.0426753	-0.108242	1.67766	0.64666	-0.0938946	-0.0215936	1.7704	-0.347976	0.141328	1.65158	0.55799	0.106858	-0.0215937	-0.532108	0.0786798	0.0685185	1.97212	-0.242847	0.379602	1.40498	1.87765	1.88642	-0.185931	0.403544	1.33971	1.67618
